<svg xmlns="http://www.w3.org/2000/svg" width="120" height="120" viewBox="0 0 120 120">
  <!-- Black rounded background -->
  <rect width="120" height="120" rx="24" ry="24" fill="#212529"/>
  
  <!-- Tailwind CSS Logo -->
  <g transform="translate(30, 30) scale(0.8)">
    <path d="M40 20C32 20 27.3333 23.3333 25 30C28.3333 26.6667 32.1667 25.8333 36.5 27.5C39.7864 28.7105 42.1212 31.0452 44.8284 33.7525C49.1818 38.1059 54.5455 43.75 64 43.75C72 43.75 76.6667 40.4167 79 33.75C75.6667 37.0833 71.8333 37.9167 67.5 36.25C64.2136 35.0395 61.8788 32.7048 59.1716 29.9975C54.8182 25.6441 49.4545 20 40 20Z" fill="#20C997"/>
    <path d="M16 43.75C8 43.75 3.33333 47.0833 1 53.75C4.33333 50.4167 8.16667 49.5833 12.5 51.25C15.7864 52.4605 18.1212 54.7952 20.8284 57.5025C25.1818 61.8559 30.5455 67.5 40 67.5C48 67.5 52.6667 64.1667 55 57.5C51.6667 60.8333 47.8333 61.6667 43.5 60C40.2136 58.7895 37.8788 56.4548 35.1716 53.7475C30.8182 49.3941 25.4545 43.75 16 43.75Z" fill="#20C997"/>
  </g>
</svg>